<mxfile host="app.diagrams.net" modified="2023-12-22T22:19:55.583Z" agent="Mozilla/5.0 (Windows NT 10.0; Win64; x64) AppleWebKit/537.36 (KHTML, like Gecko) Chrome/119.0.0.0 Safari/537.36 OPR/105.0.0.0 (Edition Yx GX 03)" etag="dKkyrvo0qteAM872ExDY" version="22.1.11" type="github">
  <diagram name="Page-1" id="b5b7bab2-c9e2-2cf4-8b2a-24fd1a2a6d21">
    <mxGraphModel dx="2393" dy="1400" grid="1" gridSize="10" guides="1" tooltips="1" connect="1" arrows="1" fold="1" page="1" pageScale="1" pageWidth="827" pageHeight="1169" background="none" math="0" shadow="0">
      <root>
        <mxCell id="0" />
        <mxCell id="1" parent="0" />
        <mxCell id="G1GVvQv9lLtZEZq4m8r2-1" value="" style="shape=folder;fontStyle=1;spacingTop=10;tabWidth=70;tabHeight=20;tabPosition=left;html=1;whiteSpace=wrap;" vertex="1" parent="1">
          <mxGeometry x="60" y="40" width="710" height="580" as="geometry" />
        </mxCell>
        <mxCell id="G1GVvQv9lLtZEZq4m8r2-2" value="Humans" style="text;align=center;fontStyle=1;verticalAlign=middle;spacingLeft=3;spacingRight=3;strokeColor=none;rotatable=0;points=[[0,0.5],[1,0.5]];portConstraint=eastwest;html=1;" vertex="1" parent="1">
          <mxGeometry x="60" y="40" width="70" height="20" as="geometry" />
        </mxCell>
        <mxCell id="G1GVvQv9lLtZEZq4m8r2-3" value="&amp;lt;&amp;lt;Abstract class&amp;gt;&amp;gt;&lt;br&gt;Character" style="swimlane;fontStyle=1;align=center;verticalAlign=top;childLayout=stackLayout;horizontal=1;startSize=40;horizontalStack=0;resizeParent=1;resizeParentMax=0;resizeLast=0;collapsible=1;marginBottom=0;whiteSpace=wrap;html=1;" vertex="1" parent="1">
          <mxGeometry x="80" y="80" width="170" height="190" as="geometry" />
        </mxCell>
        <mxCell id="G1GVvQv9lLtZEZq4m8r2-4" value="+ age: int&lt;br&gt;+ weight: int&amp;nbsp;&lt;br&gt;+ height: int&lt;br&gt;+ name: String" style="text;strokeColor=none;fillColor=none;align=left;verticalAlign=top;spacingLeft=4;spacingRight=4;overflow=hidden;rotatable=0;points=[[0,0.5],[1,0.5]];portConstraint=eastwest;whiteSpace=wrap;html=1;" vertex="1" parent="G1GVvQv9lLtZEZq4m8r2-3">
          <mxGeometry y="40" width="170" height="70" as="geometry" />
        </mxCell>
        <mxCell id="G1GVvQv9lLtZEZq4m8r2-5" value="" style="line;strokeWidth=1;fillColor=none;align=left;verticalAlign=middle;spacingTop=-1;spacingLeft=3;spacingRight=3;rotatable=0;labelPosition=right;points=[];portConstraint=eastwest;strokeColor=inherit;" vertex="1" parent="G1GVvQv9lLtZEZq4m8r2-3">
          <mxGeometry y="110" width="170" height="8" as="geometry" />
        </mxCell>
        <mxCell id="G1GVvQv9lLtZEZq4m8r2-6" value="+ getName(): String&lt;br&gt;+ hashCode(): int&lt;br&gt;+ equals(Object): boolean&lt;br&gt;+ toString(): String" style="text;strokeColor=none;fillColor=none;align=left;verticalAlign=top;spacingLeft=4;spacingRight=4;overflow=hidden;rotatable=0;points=[[0,0.5],[1,0.5]];portConstraint=eastwest;whiteSpace=wrap;html=1;" vertex="1" parent="G1GVvQv9lLtZEZq4m8r2-3">
          <mxGeometry y="118" width="170" height="72" as="geometry" />
        </mxCell>
        <mxCell id="G1GVvQv9lLtZEZq4m8r2-7" value="&amp;lt;&amp;lt;Abstract class&amp;gt;&amp;gt;&lt;br&gt;Relative" style="swimlane;fontStyle=1;align=center;verticalAlign=top;childLayout=stackLayout;horizontal=1;startSize=40;horizontalStack=0;resizeParent=1;resizeParentMax=0;resizeLast=0;collapsible=1;marginBottom=0;whiteSpace=wrap;html=1;" vertex="1" parent="1">
          <mxGeometry x="550" y="80" width="200" height="144" as="geometry" />
        </mxCell>
        <mxCell id="G1GVvQv9lLtZEZq4m8r2-8" value="+ age: int&lt;br&gt;+ weight: int&amp;nbsp;&lt;br&gt;+ height: int&lt;br&gt;+ name: String" style="text;strokeColor=none;fillColor=none;align=left;verticalAlign=top;spacingLeft=4;spacingRight=4;overflow=hidden;rotatable=0;points=[[0,0.5],[1,0.5]];portConstraint=eastwest;whiteSpace=wrap;html=1;" vertex="1" parent="G1GVvQv9lLtZEZq4m8r2-7">
          <mxGeometry y="40" width="200" height="70" as="geometry" />
        </mxCell>
        <mxCell id="G1GVvQv9lLtZEZq4m8r2-9" value="" style="line;strokeWidth=1;fillColor=none;align=left;verticalAlign=middle;spacingTop=-1;spacingLeft=3;spacingRight=3;rotatable=0;labelPosition=right;points=[];portConstraint=eastwest;strokeColor=inherit;" vertex="1" parent="G1GVvQv9lLtZEZq4m8r2-7">
          <mxGeometry y="110" width="200" height="8" as="geometry" />
        </mxCell>
        <mxCell id="G1GVvQv9lLtZEZq4m8r2-10" value="+ wishAGoodNight(Character): void" style="text;strokeColor=none;fillColor=none;align=left;verticalAlign=top;spacingLeft=4;spacingRight=4;overflow=hidden;rotatable=0;points=[[0,0.5],[1,0.5]];portConstraint=eastwest;whiteSpace=wrap;html=1;" vertex="1" parent="G1GVvQv9lLtZEZq4m8r2-7">
          <mxGeometry y="118" width="200" height="26" as="geometry" />
        </mxCell>
        <mxCell id="G1GVvQv9lLtZEZq4m8r2-22" style="edgeStyle=orthogonalEdgeStyle;rounded=0;orthogonalLoop=1;jettySize=auto;html=1;exitX=0;exitY=0.5;exitDx=0;exitDy=0;entryX=0.75;entryY=1;entryDx=0;entryDy=0;" edge="1" parent="1" source="G1GVvQv9lLtZEZq4m8r2-15" target="G1GVvQv9lLtZEZq4m8r2-7">
          <mxGeometry relative="1" as="geometry" />
        </mxCell>
        <mxCell id="G1GVvQv9lLtZEZq4m8r2-15" value="&lt;p style=&quot;margin:0px;margin-top:4px;text-align:center;&quot;&gt;&lt;b&gt;Mum&lt;/b&gt;&lt;/p&gt;&lt;hr size=&quot;1&quot;&gt;&lt;div style=&quot;height:2px;&quot;&gt;&lt;/div&gt;&lt;hr size=&quot;1&quot;&gt;&lt;div style=&quot;height:2px;&quot;&gt;&lt;/div&gt;" style="verticalAlign=top;align=left;overflow=fill;fontSize=12;fontFamily=Helvetica;html=1;whiteSpace=wrap;" vertex="1" parent="1">
          <mxGeometry x="670" y="290" width="90" height="60" as="geometry" />
        </mxCell>
        <mxCell id="G1GVvQv9lLtZEZq4m8r2-23" style="edgeStyle=orthogonalEdgeStyle;rounded=0;orthogonalLoop=1;jettySize=auto;html=1;exitX=1;exitY=0.5;exitDx=0;exitDy=0;entryX=0.5;entryY=1;entryDx=0;entryDy=0;" edge="1" parent="1" source="G1GVvQv9lLtZEZq4m8r2-16" target="G1GVvQv9lLtZEZq4m8r2-7">
          <mxGeometry relative="1" as="geometry" />
        </mxCell>
        <mxCell id="G1GVvQv9lLtZEZq4m8r2-16" value="&lt;p style=&quot;margin:0px;margin-top:4px;text-align:center;&quot;&gt;&lt;b&gt;Dad&lt;/b&gt;&lt;/p&gt;&lt;hr size=&quot;1&quot;&gt;&lt;div style=&quot;height:2px;&quot;&gt;&lt;/div&gt;&lt;hr size=&quot;1&quot;&gt;&lt;div style=&quot;height:2px;&quot;&gt;&lt;/div&gt;" style="verticalAlign=top;align=left;overflow=fill;fontSize=12;fontFamily=Helvetica;html=1;whiteSpace=wrap;" vertex="1" parent="1">
          <mxGeometry x="505" y="380" width="85" height="60" as="geometry" />
        </mxCell>
        <mxCell id="G1GVvQv9lLtZEZq4m8r2-21" style="edgeStyle=orthogonalEdgeStyle;rounded=0;orthogonalLoop=1;jettySize=auto;html=1;exitX=1;exitY=0.5;exitDx=0;exitDy=0;entryX=0.25;entryY=1;entryDx=0;entryDy=0;" edge="1" parent="1" source="G1GVvQv9lLtZEZq4m8r2-17" target="G1GVvQv9lLtZEZq4m8r2-7">
          <mxGeometry relative="1" as="geometry" />
        </mxCell>
        <mxCell id="G1GVvQv9lLtZEZq4m8r2-17" value="&lt;p style=&quot;margin:0px;margin-top:4px;text-align:center;&quot;&gt;&lt;b&gt;Bosse&lt;/b&gt;&lt;/p&gt;&lt;hr size=&quot;1&quot;&gt;&lt;div style=&quot;height:2px;&quot;&gt;&lt;/div&gt;&lt;hr size=&quot;1&quot;&gt;&lt;div style=&quot;height:2px;&quot;&gt;&lt;/div&gt;" style="verticalAlign=top;align=left;overflow=fill;fontSize=12;fontFamily=Helvetica;html=1;whiteSpace=wrap;" vertex="1" parent="1">
          <mxGeometry x="505" y="290" width="85" height="60" as="geometry" />
        </mxCell>
        <mxCell id="G1GVvQv9lLtZEZq4m8r2-24" style="edgeStyle=orthogonalEdgeStyle;rounded=0;orthogonalLoop=1;jettySize=auto;html=1;exitX=0;exitY=0.5;exitDx=0;exitDy=0;" edge="1" parent="1" source="G1GVvQv9lLtZEZq4m8r2-18">
          <mxGeometry relative="1" as="geometry">
            <mxPoint x="640" y="230" as="targetPoint" />
          </mxGeometry>
        </mxCell>
        <mxCell id="G1GVvQv9lLtZEZq4m8r2-18" value="&lt;p style=&quot;margin:0px;margin-top:4px;text-align:center;&quot;&gt;&lt;b&gt;Betan&lt;/b&gt;&lt;/p&gt;&lt;hr size=&quot;1&quot;&gt;&lt;div style=&quot;height:2px;&quot;&gt;&lt;/div&gt;&lt;hr size=&quot;1&quot;&gt;&lt;div style=&quot;height:2px;&quot;&gt;&lt;/div&gt;" style="verticalAlign=top;align=left;overflow=fill;fontSize=12;fontFamily=Helvetica;html=1;whiteSpace=wrap;" vertex="1" parent="1">
          <mxGeometry x="670" y="380" width="90" height="60" as="geometry" />
        </mxCell>
        <mxCell id="G1GVvQv9lLtZEZq4m8r2-20" style="edgeStyle=orthogonalEdgeStyle;rounded=0;orthogonalLoop=1;jettySize=auto;html=1;exitX=0;exitY=0.5;exitDx=0;exitDy=0;entryX=1;entryY=0.5;entryDx=0;entryDy=0;" edge="1" parent="1" source="G1GVvQv9lLtZEZq4m8r2-8" target="G1GVvQv9lLtZEZq4m8r2-4">
          <mxGeometry relative="1" as="geometry" />
        </mxCell>
        <mxCell id="G1GVvQv9lLtZEZq4m8r2-43" style="edgeStyle=orthogonalEdgeStyle;rounded=0;orthogonalLoop=1;jettySize=auto;html=1;exitX=0.5;exitY=0;exitDx=0;exitDy=0;" edge="1" parent="1" target="G1GVvQv9lLtZEZq4m8r2-3">
          <mxGeometry relative="1" as="geometry">
            <mxPoint x="390.0000000000002" y="305" as="sourcePoint" />
            <Array as="points">
              <mxPoint x="390" y="190" />
            </Array>
          </mxGeometry>
        </mxCell>
        <mxCell id="G1GVvQv9lLtZEZq4m8r2-44" style="edgeStyle=orthogonalEdgeStyle;rounded=0;orthogonalLoop=1;jettySize=auto;html=1;exitX=0.5;exitY=0;exitDx=0;exitDy=0;entryX=1;entryY=0.5;entryDx=0;entryDy=0;" edge="1" parent="1" target="G1GVvQv9lLtZEZq4m8r2-6">
          <mxGeometry relative="1" as="geometry">
            <mxPoint x="209.99999999999977" y="430" as="sourcePoint" />
            <Array as="points">
              <mxPoint x="270" y="440" />
              <mxPoint x="270" y="234" />
            </Array>
          </mxGeometry>
        </mxCell>
        <mxCell id="G1GVvQv9lLtZEZq4m8r2-46" value="" style="shape=folder;fontStyle=1;spacingTop=10;tabWidth=90;tabHeight=20;tabPosition=left;html=1;whiteSpace=wrap;" vertex="1" parent="1">
          <mxGeometry x="19" y="670" width="790" height="290" as="geometry" />
        </mxCell>
        <mxCell id="G1GVvQv9lLtZEZq4m8r2-49" value="interfaces" style="text;align=center;fontStyle=1;verticalAlign=middle;spacingLeft=3;spacingRight=3;strokeColor=none;rotatable=0;points=[[0,0.5],[1,0.5]];portConstraint=eastwest;html=1;" vertex="1" parent="1">
          <mxGeometry x="19" y="670" width="90" height="20" as="geometry" />
        </mxCell>
        <mxCell id="G1GVvQv9lLtZEZq4m8r2-50" value="&lt;p style=&quot;margin:0px;margin-top:4px;text-align:center;&quot;&gt;&lt;i&gt;&amp;lt;&amp;lt;Interface&amp;gt;&amp;gt;&lt;/i&gt;&lt;br&gt;&lt;b&gt;FallingAsleep&lt;/b&gt;&lt;/p&gt;&lt;hr size=&quot;1&quot;&gt;&lt;p style=&quot;margin:0px;margin-left:4px;&quot;&gt;+ fallingAsleep(): void&lt;/p&gt;&lt;p style=&quot;margin:0px;margin-left:4px;&quot;&gt;+ lyingInBed(): void&lt;/p&gt;&lt;p style=&quot;margin:0px;margin-left:4px;&quot;&gt;+ alreadySleeping(): void&lt;/p&gt;&lt;p style=&quot;margin:0px;margin-left:4px;&quot;&gt;+ checkSleeping: boolean&lt;/p&gt;" style="verticalAlign=top;align=left;overflow=fill;fontSize=12;fontFamily=Helvetica;html=1;whiteSpace=wrap;" vertex="1" parent="1">
          <mxGeometry x="49" y="720" width="160" height="110" as="geometry" />
        </mxCell>
        <mxCell id="G1GVvQv9lLtZEZq4m8r2-51" value="&lt;p style=&quot;margin:0px;margin-top:4px;text-align:center;&quot;&gt;&lt;i&gt;&amp;lt;&amp;lt;Interface&amp;gt;&amp;gt;&lt;/i&gt;&lt;br&gt;&lt;b&gt;Thinking&lt;/b&gt;&lt;br&gt;&lt;/p&gt;&lt;hr size=&quot;1&quot;&gt;&lt;p style=&quot;margin:0px;margin-left:4px;&quot;&gt;+ think(Character): void&lt;/p&gt;" style="verticalAlign=top;align=left;overflow=fill;fontSize=12;fontFamily=Helvetica;html=1;whiteSpace=wrap;" vertex="1" parent="1">
          <mxGeometry x="250" y="720" width="140" height="70" as="geometry" />
        </mxCell>
        <mxCell id="G1GVvQv9lLtZEZq4m8r2-52" value="&lt;p style=&quot;margin:0px;margin-top:4px;text-align:center;&quot;&gt;&lt;i&gt;&amp;lt;&amp;lt;Interface&amp;gt;&amp;gt;&lt;/i&gt;&lt;br&gt;&lt;b&gt;Farewell&lt;/b&gt;&lt;br&gt;&lt;/p&gt;&lt;hr size=&quot;1&quot;&gt;&lt;p style=&quot;margin:0px;margin-left:4px;&quot;&gt;+ farewell: void&lt;/p&gt;" style="verticalAlign=top;align=left;overflow=fill;fontSize=12;fontFamily=Helvetica;html=1;whiteSpace=wrap;" vertex="1" parent="1">
          <mxGeometry x="419" y="720" width="140" height="70" as="geometry" />
        </mxCell>
        <mxCell id="G1GVvQv9lLtZEZq4m8r2-53" value="&lt;p style=&quot;margin:0px;margin-top:4px;text-align:center;&quot;&gt;&lt;i&gt;&amp;lt;&amp;lt;Interface&amp;gt;&amp;gt;&lt;/i&gt;&lt;br&gt;&lt;b&gt;WishAGoodNight&lt;/b&gt;&lt;br&gt;&lt;/p&gt;&lt;hr size=&quot;1&quot;&gt;&lt;p style=&quot;margin:0px;margin-left:4px;&quot;&gt;+ wishAGoodNight(Character): void&lt;/p&gt;" style="verticalAlign=top;align=left;overflow=fill;fontSize=12;fontFamily=Helvetica;html=1;whiteSpace=wrap;" vertex="1" parent="1">
          <mxGeometry x="590" y="720" width="205" height="70" as="geometry" />
        </mxCell>
        <mxCell id="G1GVvQv9lLtZEZq4m8r2-54" value="&lt;p style=&quot;margin:0px;margin-top:4px;text-align:center;&quot;&gt;&lt;i&gt;&amp;lt;&amp;lt;Interface&amp;gt;&amp;gt;&lt;/i&gt;&lt;br&gt;&lt;b&gt;Constructable&lt;/b&gt;&lt;br&gt;&lt;/p&gt;&lt;hr size=&quot;1&quot;&gt;&lt;p style=&quot;margin:0px;margin-left:4px;&quot;&gt;+ construct(Character): void&lt;/p&gt;" style="verticalAlign=top;align=left;overflow=fill;fontSize=12;fontFamily=Helvetica;html=1;whiteSpace=wrap;" vertex="1" parent="1">
          <mxGeometry x="350" y="850" width="160" height="70" as="geometry" />
        </mxCell>
        <mxCell id="G1GVvQv9lLtZEZq4m8r2-68" style="edgeStyle=orthogonalEdgeStyle;rounded=0;orthogonalLoop=1;jettySize=auto;html=1;exitX=0.25;exitY=1;exitDx=0;exitDy=0;entryX=0.5;entryY=0;entryDx=0;entryDy=0;" edge="1" parent="1" source="G1GVvQv9lLtZEZq4m8r2-67" target="G1GVvQv9lLtZEZq4m8r2-52">
          <mxGeometry relative="1" as="geometry">
            <Array as="points">
              <mxPoint x="110" y="650" />
              <mxPoint x="489" y="650" />
            </Array>
          </mxGeometry>
        </mxCell>
        <mxCell id="G1GVvQv9lLtZEZq4m8r2-67" value="&lt;p style=&quot;margin:0px;margin-top:4px;text-align:center;&quot;&gt;&lt;b&gt;Carlson&lt;/b&gt;&lt;/p&gt;&lt;hr size=&quot;1&quot;&gt;&lt;p style=&quot;margin:0px;margin-left:4px;&quot;&gt;+ farewell(): void&lt;/p&gt;" style="verticalAlign=top;align=left;overflow=fill;fontSize=12;fontFamily=Helvetica;html=1;whiteSpace=wrap;" vertex="1" parent="1">
          <mxGeometry x="70" y="342.5" width="160" height="60" as="geometry" />
        </mxCell>
        <mxCell id="G1GVvQv9lLtZEZq4m8r2-69" style="edgeStyle=orthogonalEdgeStyle;rounded=0;orthogonalLoop=1;jettySize=auto;html=1;exitX=0.5;exitY=0;exitDx=0;exitDy=0;entryX=0.38;entryY=1.009;entryDx=0;entryDy=0;entryPerimeter=0;" edge="1" parent="1" source="G1GVvQv9lLtZEZq4m8r2-67" target="G1GVvQv9lLtZEZq4m8r2-6">
          <mxGeometry relative="1" as="geometry">
            <Array as="points">
              <mxPoint x="145" y="342" />
              <mxPoint x="145" y="306" />
            </Array>
          </mxGeometry>
        </mxCell>
        <mxCell id="G1GVvQv9lLtZEZq4m8r2-70" style="edgeStyle=orthogonalEdgeStyle;rounded=0;orthogonalLoop=1;jettySize=auto;html=1;exitX=1;exitY=0.5;exitDx=0;exitDy=0;entryX=0.5;entryY=0;entryDx=0;entryDy=0;" edge="1" parent="1" source="G1GVvQv9lLtZEZq4m8r2-8" target="G1GVvQv9lLtZEZq4m8r2-53">
          <mxGeometry relative="1" as="geometry">
            <Array as="points">
              <mxPoint x="810" y="155" />
              <mxPoint x="810" y="650" />
              <mxPoint x="692" y="650" />
            </Array>
          </mxGeometry>
        </mxCell>
        <mxCell id="G1GVvQv9lLtZEZq4m8r2-74" style="edgeStyle=orthogonalEdgeStyle;rounded=0;orthogonalLoop=1;jettySize=auto;html=1;exitX=0.5;exitY=1;exitDx=0;exitDy=0;entryX=0.5;entryY=0;entryDx=0;entryDy=0;" edge="1" parent="1" source="G1GVvQv9lLtZEZq4m8r2-73" target="G1GVvQv9lLtZEZq4m8r2-51">
          <mxGeometry relative="1" as="geometry">
            <Array as="points">
              <mxPoint x="390" y="600" />
              <mxPoint x="320" y="600" />
            </Array>
          </mxGeometry>
        </mxCell>
        <mxCell id="G1GVvQv9lLtZEZq4m8r2-75" style="edgeStyle=orthogonalEdgeStyle;rounded=0;orthogonalLoop=1;jettySize=auto;html=1;exitX=0.25;exitY=1;exitDx=0;exitDy=0;entryX=0.5;entryY=0;entryDx=0;entryDy=0;" edge="1" parent="1" source="G1GVvQv9lLtZEZq4m8r2-73" target="G1GVvQv9lLtZEZq4m8r2-50">
          <mxGeometry relative="1" as="geometry">
            <Array as="points">
              <mxPoint x="350" y="590" />
              <mxPoint x="129" y="590" />
            </Array>
          </mxGeometry>
        </mxCell>
        <mxCell id="G1GVvQv9lLtZEZq4m8r2-73" value="&lt;p style=&quot;margin:0px;margin-top:4px;text-align:center;&quot;&gt;&lt;b&gt;Malish&lt;/b&gt;&lt;/p&gt;&lt;hr size=&quot;1&quot;&gt;&lt;p style=&quot;margin:0px;margin-left:4px;&quot;&gt;+ isSleeping: boolean&lt;/p&gt;&lt;hr size=&quot;1&quot;&gt;&lt;p style=&quot;margin:0px;margin-left:4px;&quot;&gt;+ alreadySleeping(): void&lt;/p&gt;&lt;p style=&quot;margin:0px;margin-left:4px;&quot;&gt;+ think(Character): void&lt;/p&gt;&lt;p style=&quot;margin:0px;margin-left:4px;&quot;&gt;+ fallingAsleep(): void&lt;/p&gt;&lt;p style=&quot;margin:0px;margin-left:4px;&quot;&gt;+ checkSleeping(): boolean&lt;/p&gt;&lt;p style=&quot;margin:0px;margin-left:4px;&quot;&gt;+ lyingInBed(): void&lt;/p&gt;" style="verticalAlign=top;align=left;overflow=fill;fontSize=12;fontFamily=Helvetica;html=1;whiteSpace=wrap;" vertex="1" parent="1">
          <mxGeometry x="310" y="305" width="160" height="135" as="geometry" />
        </mxCell>
        <mxCell id="G1GVvQv9lLtZEZq4m8r2-79" style="edgeStyle=orthogonalEdgeStyle;rounded=0;orthogonalLoop=1;jettySize=auto;html=1;exitX=0.5;exitY=1;exitDx=0;exitDy=0;entryX=0.75;entryY=0;entryDx=0;entryDy=0;" edge="1" parent="1" source="G1GVvQv9lLtZEZq4m8r2-78" target="G1GVvQv9lLtZEZq4m8r2-50">
          <mxGeometry relative="1" as="geometry">
            <Array as="points">
              <mxPoint x="169" y="565" />
            </Array>
          </mxGeometry>
        </mxCell>
        <mxCell id="G1GVvQv9lLtZEZq4m8r2-78" value="&lt;p style=&quot;margin:0px;margin-top:4px;text-align:center;&quot;&gt;&lt;b&gt;Bimbo&lt;/b&gt;&lt;/p&gt;&lt;hr size=&quot;1&quot;&gt;&lt;p style=&quot;margin:0px;margin-left:4px;&quot;&gt;+ isSleeping: boolean&lt;/p&gt;&lt;hr size=&quot;1&quot;&gt;&lt;p style=&quot;margin:0px;margin-left:4px;&quot;&gt;+ alreadySleeping(): void&lt;/p&gt;&lt;p style=&quot;margin:0px;margin-left:4px;&quot;&gt;+ fallingAsleep(): void&lt;/p&gt;&lt;p style=&quot;margin:0px;margin-left:4px;&quot;&gt;+ checkSleeping(): boolean&lt;/p&gt;&lt;p style=&quot;margin:0px;margin-left:4px;&quot;&gt;+ lyingInBed(): void&lt;/p&gt;" style="verticalAlign=top;align=left;overflow=fill;fontSize=12;fontFamily=Helvetica;html=1;whiteSpace=wrap;glass=1;" vertex="1" parent="1">
          <mxGeometry x="140" y="430" width="160" height="135" as="geometry" />
        </mxCell>
        <mxCell id="G1GVvQv9lLtZEZq4m8r2-80" value="" style="shape=folder;fontStyle=1;spacingTop=10;tabWidth=80;tabHeight=20;tabPosition=left;html=1;whiteSpace=wrap;" vertex="1" parent="1">
          <mxGeometry x="20" y="1020" width="790" height="310" as="geometry" />
        </mxCell>
        <mxCell id="G1GVvQv9lLtZEZq4m8r2-81" value="Objects" style="text;align=center;fontStyle=1;verticalAlign=middle;spacingLeft=3;spacingRight=3;strokeColor=none;rotatable=0;points=[[0,0.5],[1,0.5]];portConstraint=eastwest;html=1;" vertex="1" parent="1">
          <mxGeometry x="20" y="1020" width="80" height="20" as="geometry" />
        </mxCell>
        <mxCell id="G1GVvQv9lLtZEZq4m8r2-86" style="edgeStyle=orthogonalEdgeStyle;rounded=0;orthogonalLoop=1;jettySize=auto;html=1;exitX=0.5;exitY=0;exitDx=0;exitDy=0;entryX=0.5;entryY=1;entryDx=0;entryDy=0;" edge="1" parent="1" source="G1GVvQv9lLtZEZq4m8r2-82" target="G1GVvQv9lLtZEZq4m8r2-54">
          <mxGeometry relative="1" as="geometry" />
        </mxCell>
        <mxCell id="G1GVvQv9lLtZEZq4m8r2-82" value="Birdhouse" style="swimlane;fontStyle=1;align=center;verticalAlign=top;childLayout=stackLayout;horizontal=1;startSize=26;horizontalStack=0;resizeParent=1;resizeParentMax=0;resizeLast=0;collapsible=1;marginBottom=0;whiteSpace=wrap;html=1;" vertex="1" parent="1">
          <mxGeometry x="60" y="1095" width="160" height="60" as="geometry" />
        </mxCell>
        <mxCell id="G1GVvQv9lLtZEZq4m8r2-84" value="" style="line;strokeWidth=1;fillColor=none;align=left;verticalAlign=middle;spacingTop=-1;spacingLeft=3;spacingRight=3;rotatable=0;labelPosition=right;points=[];portConstraint=eastwest;strokeColor=inherit;" vertex="1" parent="G1GVvQv9lLtZEZq4m8r2-82">
          <mxGeometry y="26" width="160" height="8" as="geometry" />
        </mxCell>
        <mxCell id="G1GVvQv9lLtZEZq4m8r2-85" value="+ construct(Character): void" style="text;strokeColor=none;fillColor=none;align=left;verticalAlign=top;spacingLeft=4;spacingRight=4;overflow=hidden;rotatable=0;points=[[0,0.5],[1,0.5]];portConstraint=eastwest;whiteSpace=wrap;html=1;" vertex="1" parent="G1GVvQv9lLtZEZq4m8r2-82">
          <mxGeometry y="34" width="160" height="26" as="geometry" />
        </mxCell>
        <mxCell id="G1GVvQv9lLtZEZq4m8r2-87" value="&amp;lt;&amp;lt;Abstract class&amp;gt;&amp;gt;&lt;br&gt;PhysicalObject" style="swimlane;fontStyle=1;align=center;verticalAlign=top;childLayout=stackLayout;horizontal=1;startSize=40;horizontalStack=0;resizeParent=1;resizeParentMax=0;resizeLast=0;collapsible=1;marginBottom=0;whiteSpace=wrap;html=1;" vertex="1" parent="1">
          <mxGeometry x="290" y="1070" width="200" height="180" as="geometry" />
        </mxCell>
        <mxCell id="G1GVvQv9lLtZEZq4m8r2-88" value="+ weight: int&amp;nbsp;&lt;br&gt;+ name: String&lt;br&gt;+ color: Color" style="text;strokeColor=none;fillColor=none;align=left;verticalAlign=top;spacingLeft=4;spacingRight=4;overflow=hidden;rotatable=0;points=[[0,0.5],[1,0.5]];portConstraint=eastwest;whiteSpace=wrap;html=1;" vertex="1" parent="G1GVvQv9lLtZEZq4m8r2-87">
          <mxGeometry y="40" width="200" height="60" as="geometry" />
        </mxCell>
        <mxCell id="G1GVvQv9lLtZEZq4m8r2-89" value="" style="line;strokeWidth=1;fillColor=none;align=left;verticalAlign=middle;spacingTop=-1;spacingLeft=3;spacingRight=3;rotatable=0;labelPosition=right;points=[];portConstraint=eastwest;strokeColor=inherit;" vertex="1" parent="G1GVvQv9lLtZEZq4m8r2-87">
          <mxGeometry y="100" width="200" height="8" as="geometry" />
        </mxCell>
        <mxCell id="G1GVvQv9lLtZEZq4m8r2-90" value="+ getName(): String&lt;br style=&quot;border-color: var(--border-color);&quot;&gt;+ hashCode(): int&lt;br style=&quot;border-color: var(--border-color);&quot;&gt;+ equals(Object): boolean&lt;br style=&quot;border-color: var(--border-color);&quot;&gt;+ toString(): String" style="text;strokeColor=none;fillColor=none;align=left;verticalAlign=top;spacingLeft=4;spacingRight=4;overflow=hidden;rotatable=0;points=[[0,0.5],[1,0.5]];portConstraint=eastwest;whiteSpace=wrap;html=1;" vertex="1" parent="G1GVvQv9lLtZEZq4m8r2-87">
          <mxGeometry y="108" width="200" height="72" as="geometry" />
        </mxCell>
        <mxCell id="G1GVvQv9lLtZEZq4m8r2-91" style="edgeStyle=orthogonalEdgeStyle;rounded=0;orthogonalLoop=1;jettySize=auto;html=1;exitX=1;exitY=0.5;exitDx=0;exitDy=0;entryX=0;entryY=0.5;entryDx=0;entryDy=0;" edge="1" parent="1" source="G1GVvQv9lLtZEZq4m8r2-85" target="G1GVvQv9lLtZEZq4m8r2-88">
          <mxGeometry relative="1" as="geometry">
            <Array as="points">
              <mxPoint x="290" y="1140" />
            </Array>
          </mxGeometry>
        </mxCell>
        <mxCell id="G1GVvQv9lLtZEZq4m8r2-92" value="&lt;i style=&quot;border-color: var(--border-color); font-weight: 400;&quot;&gt;&amp;lt;&amp;lt;Enum&amp;gt;&amp;gt;&lt;/i&gt;&lt;br style=&quot;border-color: var(--border-color); font-weight: 400;&quot;&gt;Color" style="swimlane;fontStyle=1;align=center;verticalAlign=top;childLayout=stackLayout;horizontal=1;startSize=40;horizontalStack=0;resizeParent=1;resizeParentMax=0;resizeLast=0;collapsible=1;marginBottom=0;whiteSpace=wrap;html=1;" vertex="1" parent="1">
          <mxGeometry x="550" y="1060" width="190" height="250" as="geometry" />
        </mxCell>
        <mxCell id="G1GVvQv9lLtZEZq4m8r2-93" value="+ ORANGE&lt;br&gt;+ BLACK&lt;br&gt;+ BROWN&lt;br&gt;+ BLUE&lt;br&gt;+ RED&lt;br&gt;+ GREEN&lt;br&gt;+ WHITE&lt;br&gt;+ PURPLE&lt;br&gt;+ GRAY&lt;br&gt;+ YELLOW" style="text;strokeColor=none;fillColor=none;align=left;verticalAlign=top;spacingLeft=4;spacingRight=4;overflow=hidden;rotatable=0;points=[[0,0.5],[1,0.5]];portConstraint=eastwest;whiteSpace=wrap;html=1;" vertex="1" parent="G1GVvQv9lLtZEZq4m8r2-92">
          <mxGeometry y="40" width="190" height="160" as="geometry" />
        </mxCell>
        <mxCell id="G1GVvQv9lLtZEZq4m8r2-94" value="" style="line;strokeWidth=1;fillColor=none;align=left;verticalAlign=middle;spacingTop=-1;spacingLeft=3;spacingRight=3;rotatable=0;labelPosition=right;points=[];portConstraint=eastwest;strokeColor=inherit;" vertex="1" parent="G1GVvQv9lLtZEZq4m8r2-92">
          <mxGeometry y="200" width="190" height="8" as="geometry" />
        </mxCell>
        <mxCell id="G1GVvQv9lLtZEZq4m8r2-95" value="+ values(): Color[]&lt;br&gt;+ valueOf(String): Color" style="text;strokeColor=none;fillColor=none;align=left;verticalAlign=top;spacingLeft=4;spacingRight=4;overflow=hidden;rotatable=0;points=[[0,0.5],[1,0.5]];portConstraint=eastwest;whiteSpace=wrap;html=1;" vertex="1" parent="G1GVvQv9lLtZEZq4m8r2-92">
          <mxGeometry y="208" width="190" height="42" as="geometry" />
        </mxCell>
        <mxCell id="G1GVvQv9lLtZEZq4m8r2-96" value="Main" style="swimlane;fontStyle=1;align=center;verticalAlign=top;childLayout=stackLayout;horizontal=1;startSize=40;horizontalStack=0;resizeParent=1;resizeParentMax=0;resizeLast=0;collapsible=1;marginBottom=0;whiteSpace=wrap;html=1;" vertex="1" parent="1">
          <mxGeometry x="639" y="1390" width="170" height="74" as="geometry" />
        </mxCell>
        <mxCell id="G1GVvQv9lLtZEZq4m8r2-98" value="" style="line;strokeWidth=1;fillColor=none;align=left;verticalAlign=middle;spacingTop=-1;spacingLeft=3;spacingRight=3;rotatable=0;labelPosition=right;points=[];portConstraint=eastwest;strokeColor=inherit;" vertex="1" parent="G1GVvQv9lLtZEZq4m8r2-96">
          <mxGeometry y="40" width="170" height="8" as="geometry" />
        </mxCell>
        <mxCell id="G1GVvQv9lLtZEZq4m8r2-99" value="+ main(String[]): void" style="text;strokeColor=none;fillColor=none;align=left;verticalAlign=top;spacingLeft=4;spacingRight=4;overflow=hidden;rotatable=0;points=[[0,0.5],[1,0.5]];portConstraint=eastwest;whiteSpace=wrap;html=1;" vertex="1" parent="G1GVvQv9lLtZEZq4m8r2-96">
          <mxGeometry y="48" width="170" height="26" as="geometry" />
        </mxCell>
      </root>
    </mxGraphModel>
  </diagram>
</mxfile>
